# xmcd
#
# Track frame offsets:
# 150
# 21884
# 45021
# 68319
# 97698
# 122049
# 145129
# 173215
# 203692
# 236187
# 269843
# 303387
# 330660
#
# Disc length: 4749 seconds
#
#
# Revision: 0
# Processed by: cddbd v1.5.2PL0 Copyright (c) Steve Scherf et al.
# Submitted via: FreeRIP 2.945 
#
DISCID=a9128b0d
DTITLE=Herriot-J1972 - Great-Small02
DYEAR=1972
DGENRE=Jungle
TTITLE0=GS 0201
TTITLE1=GS 0202
TTITLE2=GS 0203
TTITLE3=GS 0204
TTITLE4=GS 0205
TTITLE5=GS 0206
TTITLE6=GS 0207
TTITLE7=GS 0208
TTITLE8=GS 0209
TTITLE9=GS 0210
TTITLE10=GS 0211
TTITLE11=GS 0212
TTITLE12=GS 0213
EXTD=All Creatures Great and Small 12 CDs\nby James Harriot read by ChristopherTimothy\nAudio Renassance - Jungle - Country
EXTT0=
EXTT1=
EXTT2=
EXTT3=
EXTT4=
EXTT5=
EXTT6=
EXTT7=
EXTT8=
EXTT9=
EXTT10=
EXTT11=
EXTT12=
PLAYORDER=
